Coordinates
version=1
nRows=20
nColumns=33
inDegrees=yes

Units are S.I. units (second, meters, Newtons, ...)
Angles are in degrees.

endheader
time	ground_thorax_rot_x	ground_thorax_rot_y	ground_thorax_rot_z	ground_thorax_tx	ground_thorax_ty	ground_thorax_tz	clav_prot_r	clav_elev_r	scapula_abduction_r	scapula_elevation_r	scapula_upward_rot_r	scapula_winging_r	shoulder_elv_r	plane_of_elev_r	axial_rot_r	elbow_flexion_r	pro_sup_r	wrist_flex_r	wrist_dev_r	clav_prot_l	clav_elev_l	scapula_abduction_l	scapula_elevation_l	scapula_upward_rot_l	scapula_winging_l	shoulder_elv_l	plane_of_elev_l	axial_rot_l	elbow_flexion_l	pro_sup_l	wrist_flex_l	wrist_dev_l	
5.4600	-1.766653	0.610116	12.871015	-0.110817	1.029497	0.013171	11.818430	-12.034464	23.959183	-7.313245	6.656719	-5.582729	-25.707075	-67.816348	110.188565	-76.521484	-165.332686	18.935551	-8.087507	14.581329	-6.133982	-20.508626	-15.088571	-33.856723	2.816287	60.237848	-19.068591	11.799570	59.278146	9.933394	11.909268	-15.020507	
5.4700	-1.613202	0.452837	12.903093	-0.111206	1.029705	0.013272	11.590461	-11.856039	23.355390	-7.004377	6.244854	-5.420159	-26.665639	-68.412555	109.725972	-77.176564	-164.839398	20.206050	-8.944843	14.204905	-5.841789	-19.869611	-15.438701	-33.981496	2.494390	60.027523	-19.935726	11.512718	60.416112	9.975137	11.440286	-15.549046	
5.4800	-1.458943	0.289555	12.935669	-0.111583	1.029895	0.013372	11.361515	-11.645652	22.769567	-6.678982	5.868596	-5.279348	-27.648325	-68.993383	109.261803	-77.731213	-164.264758	21.512101	-9.828953	13.826558	-5.539665	-19.222750	-15.795869	-34.099519	2.171060	59.809555	-20.802591	11.223610	61.488277	10.082027	10.951400	-16.156725	
5.4900	-1.306638	0.125349	12.975483	-0.111948	1.030083	0.013480	11.134399	-11.424166	22.196478	-6.349405	5.511253	-5.146938	-28.675496	-69.565194	108.759757	-78.188655	-163.608298	22.889708	-10.772101	13.439825	-5.236681	-18.554987	-16.145524	-34.196831	1.840940	59.597792	-21.693784	10.891915	62.485596	10.249426	10.427499	-16.840046	
5.5000	-1.153770	-0.038016	13.023305	-0.112298	1.030265	0.013593	10.911127	-11.184191	21.643950	-6.012382	5.181329	-5.029784	-29.758410	-70.119078	108.206064	-78.535613	-162.860091	24.336446	-11.768603	13.043437	-4.933968	-17.863464	-16.486113	-34.272488	1.503952	59.393197	-22.601338	10.516288	63.394312	10.488015	9.865864	-17.617453	
5.5100	-0.998870	-0.199476	13.078919	-0.112647	1.030418	0.013713	10.699975	-10.925732	21.118050	-5.662851	4.865607	-4.929711	-30.872905	-70.650958	107.614860	-78.793256	-162.067951	25.785516	-12.763951	12.648662	-4.633739	-17.170823	-16.823302	-34.343666	1.167264	59.194572	-23.513544	10.110758	64.224723	10.766991	9.294678	-18.442186	
5.5200	-0.843594	-0.359082	13.137461	-0.112979	1.030568	0.013836	10.497556	-10.659797	20.620557	-5.316288	4.578121	-4.842381	-32.053899	-71.158540	106.942549	-78.936268	-161.182764	27.312208	-13.806321	12.245115	-4.337939	-16.455608	-17.146410	-34.390874	0.824422	59.009696	-24.440313	9.646666	64.960533	11.107831	8.682639	-19.354541	
5.5300	-0.685763	-0.523112	13.188674	-0.113306	1.030683	0.013958	10.312630	-10.375773	20.170539	-4.967079	4.328225	-4.780668	-33.282846	-71.633967	106.211141	-78.986448	-160.252968	28.821759	-14.817745	11.847515	-4.042780	-15.746809	-17.468707	-34.435996	0.485743	58.827794	-25.355839	9.162458	65.618440	11.475548	8.065165	-20.303463	
5.5400	-0.529424	-0.689102	13.231826	-0.113624	1.030779	0.014074	10.142972	-10.081660	19.761648	-4.620489	4.110710	-4.738039	-34.545169	-72.068064	105.423674	-78.933132	-159.275506	30.322940	-15.801549	11.457725	-3.749871	-15.047809	-17.788562	-34.479049	0.152567	58.650501	-26.258239	8.658498	66.196933	11.869441	7.439398	-21.270570	
5.5500	-0.378113	-0.861148	13.271696	-0.113957	1.030812	0.014176	9.991539	-9.770220	19.389909	-4.263544	3.908736	-4.715932	-35.763082	-72.463202	104.670602	-78.807921	-158.336375	31.680543	-16.655629	11.101618	-3.452706	-14.410974	-18.130797	-34.561900	-0.158040	58.461975	-27.119219	8.192912	66.724720	12.241890	6.861686	-22.154123	
5.5600	-0.242247	-1.024876	13.312294	-0.114280	1.030851	0.014264	9.841797	-9.473363	19.026611	-3.924071	3.719658	-4.688144	-36.980871	-72.818185	103.884474	-78.563206	-157.319372	33.098451	-17.513853	10.757817	-3.154724	-13.791476	-18.470391	-34.636617	-0.459627	58.283218	-27.972234	7.687511	67.174184	12.648421	6.251119	-22.981240	
5.5700	-0.120426	-1.181379	13.350409	-0.114602	1.030868	0.014335	9.698095	-9.181406	18.677764	-3.592565	3.541197	-4.661810	-38.159412	-73.131382	103.112594	-78.225880	-156.287943	34.472223	-18.311329	10.439859	-2.855617	-13.216980	-18.817157	-34.724645	-0.743180	58.101655	-28.796367	7.182274	67.565696	13.060600	5.639505	-23.677145	
5.5800	-0.013441	-1.315762	13.385799	-0.114910	1.030892	0.014398	9.556996	-8.897152	18.341085	-3.274683	3.380519	-4.635341	-39.343398	-73.384776	102.291903	-77.771232	-155.169753	35.893900	-19.113167	10.136375	-2.559412	-12.662704	-19.153628	-34.796341	-1.014896	57.929749	-29.600577	6.628636	67.884979	13.523201	4.963625	-24.221918	
5.5900	0.083847	-1.438300	13.418058	-0.115220	1.030892	0.014447	9.426109	-8.613412	18.025884	-2.961258	3.230918	-4.615131	-40.484932	-73.590651	101.485650	-77.243384	-154.062478	37.220767	-19.845912	9.858809	-2.270581	-12.154805	-19.489469	-34.882147	-1.268442	57.750614	-30.369165	6.085290	68.151398	13.996282	4.272681	-24.581915	
5.6000	0.172389	-1.542550	13.442035	-0.115507	1.030905	0.014493	9.302413	-8.335253	17.743480	-2.669666	3.123943	-4.604795	-41.679564	-73.738707	100.586430	-76.609953	-152.841037	38.602965	-20.600755	9.585118	-1.986995	-11.646482	-19.806728	-34.937969	-1.517269	57.578002	-31.114579	5.491890	68.335370	14.550160	3.476863	-24.816763	
5.6100	0.258754	-1.647888	13.463419	-0.115793	1.030903	0.014529	9.195506	-8.059794	17.500665	-2.389475	3.040450	-4.607699	-42.852721	-73.854255	99.691196	-75.927629	-151.649971	39.855713	-21.282110	9.327209	-1.717192	-11.167538	-20.116631	-35.006014	-1.755557	57.388785	-31.825296	4.933648	68.450961	15.119309	2.669532	-24.947783	
5.6200	0.343659	-1.747332	13.486003	-0.116072	1.030881	0.014559	9.103543	-7.785234	17.294883	-2.119769	2.981685	-4.624114	-44.017238	-73.936118	98.779484	-75.191063	-150.443818	41.029921	-21.906848	9.082869	-1.454629	-10.711168	-20.418868	-35.072333	-1.984016	57.185515	-32.499008	4.386946	68.493124	15.733686	1.825174	-25.000000	
5.6300	0.430733	-1.847464	13.515777	-0.116365	1.030841	0.014579	9.025954	-7.522308	17.101208	-1.850730	2.899422	-4.638486	-45.036375	-74.000352	97.980299	-74.445998	-149.368205	41.979379	-22.392197	8.867817	-1.214110	-10.314506	-20.717957	-35.178436	-2.192686	56.952811	-33.118165	3.931859	68.460774	16.320081	1.056637	-25.000000	
5.6400	0.508673	-1.933139	13.533948	-0.116630	1.030819	0.014600	8.949995	-7.276808	16.927909	-1.611327	2.851777	-4.654773	-46.031871	-74.021619	97.152889	-73.626065	-148.187096	42.967854	-22.859491	8.658448	-0.975609	-9.919936	-20.998030	-35.248022	-2.394263	56.709686	-33.691746	3.483400	68.327416	17.006710	0.211289	-25.000000	
5.6500	0.578237	-2.013724	13.543598	-0.116879	1.030820	0.014618	8.876786	-7.055903	16.763810	-1.396988	2.811591	-4.664979	-46.923122	-74.014221	96.386084	-72.765673	-147.023036	43.870816	-23.256928	8.463863	-0.754632	-9.551158	-21.258028	-35.312001	-2.582541	56.446357	-34.217122	3.110302	68.102731	17.718949	-0.619342	-25.000000	
